<svg xmlns="http://www.w3.org/2000/svg" version="1.1" xmlns:xlink="http://www.w3.org/1999/xlink" xmlns:svgjs="http://svgjs.com/svgjs" width="1400" height="800" preserveAspectRatio="none" viewBox="0 0 1400 800"><g mask="url(&quot;#SvgjsMask1348&quot;)" fill="none"><rect width="1400" height="800" x="0" y="0" fill="url(#SvgjsLinearGradient1349)"></rect><path d="M1298.56 561.49L1299.36 561.49L1299.36 562.29L1298.56 562.29z" stroke="rgba(224, 255, 5, 1)"></path><path d="M507.31 606.36 a57.86 57.86 0 1 0 115.72 0 a57.86 57.86 0 1 0 -115.72 0z" fill="#e73635"></path><path d="M776.3 265.09a77.1 77.1 0 1 0 31.97 150.85z" stroke="rgba(224, 255, 5, 1)"></path><path d="M529.7 448.81L543.24 448.81L543.24 494.47L529.7 494.47z" fill="#e73635"></path><path d="M554.91 22.99a61.01 61.01 0 1 0 69.93 99.99z" fill="rgba(224, 255, 5, 1)"></path><path d="M336.36 676.94a45.4 45.4 0 1 0-84.42 33.43z" fill="rgba(224, 255, 5, 1)"></path><path d="M1037.35 382.47a58.72 58.72 0 1 0-92.76-72.03z" fill="rgba(255, 111, 5, 1)"></path><path d="M1109.94 469.38a79.35 79.35 0 1 0-151.56-47.06z" fill="rgba(255, 111, 5, 1)"></path><path d="M494.53 370.84 a28.23 28.23 0 1 0 56.46 0 a28.23 28.23 0 1 0 -56.46 0z" fill="rgba(255, 111, 5, 1)"></path><path d="M764.34 558.88a2.85 2.85 0 1 0 0.92 5.63z" stroke="#d3b714"></path><path d="M274.56 750.71L314.6 750.71L314.6 817.31L274.56 817.31z" stroke="#e73635"></path><path d="M516.65 121.63 a37.32 37.32 0 1 0 74.64 0 a37.32 37.32 0 1 0 -74.64 0z" stroke="#d3b714"></path><path d="M687.88 669.25 a29.5 29.5 0 1 0 59 0 a29.5 29.5 0 1 0 -59 0z" fill="#d3b714"></path><path d="M18.32 757.1a10.83 10.83 0 1 0-17.75-12.41z" fill="rgba(255, 111, 5, 1)"></path><path d="M353.85 216.83 a35.77 35.77 0 1 0 71.54 0 a35.77 35.77 0 1 0 -71.54 0z" fill="rgba(255, 111, 5, 1)"></path><path d="M772.65 567.01a31.38 31.38 0 1 0 17.38 60.31z" fill="rgba(255, 111, 5, 1)"></path><path d="M156.9 572.04L183.66 572.04L183.66 584.26L156.9 584.26z" fill="rgba(255, 111, 5, 1)"></path><path d="M955.96 231.72L963.77 231.72L963.77 293.03L955.96 293.03z" stroke="rgba(224, 255, 5, 1)"></path><path d="M277.93 474.04L298.69 474.04L298.69 494.8L277.93 494.8z" fill="rgba(255, 111, 5, 1)"></path><path d="M899.11 762.58 a20.6 20.6 0 1 0 41.2 0 a20.6 20.6 0 1 0 -41.2 0z" stroke="rgba(255, 111, 5, 1)"></path><path d="M1099.04 491.57L1132.61 491.57L1132.61 571.17L1099.04 571.17z" fill="rgba(224, 255, 5, 1)"></path><path d="M215.14 204.48L257.53 204.48L257.53 246.87L215.14 246.87z" stroke="#e73635"></path></g><defs><mask id="SvgjsMask1348"><rect width="1400" height="800" fill="#ffffff"></rect></mask><linearGradient x1="10.71%" y1="-18.75%" x2="89.29%" y2="118.75%" gradientUnits="userSpaceOnUse" id="SvgjsLinearGradient1349"><stop stop-color="#0e2a47" offset="0"></stop><stop stop-color="rgba(125, 7, 140, 1)" offset="1"></stop></linearGradient></defs></svg>